# xmcd CD database file
#
# Track frame offsets:
#	150
#	11537
#	35320
#	50846
#	64333
#	85405
#	104208
#	118240
#	133793
#	148830
#	164822
#	176701
#	195712
#	214215
#	232609
#
# Disc length: 3299 seconds
#
# Revision: 0
# Processed by: cddbd v1.4PL0 Copyright (c) Steve Scherf et al.
# Submitted via: CDex 1.51
#
DISCID=ea0ce10f
DTITLE=Various Artist - Drew's Famous 30 Greatest Country Duets
DYEAR=1900
DGENRE=Country
TTITLE0=Beer run
TTITLE1=Rainy night in georgia
TTITLE2=Til a tear becomes a rose
TTITLE3=Bring on the rain
TTITLE4=From this moment on
TTITLE5=Walk away joe
TTITLE6=Golden ring
TTITLE7=In another's eyes
TTITLE8=The heart won't lie
TTITLE9=To all the girls i loved before
TTITLE10=The whiskey ain't workin'
TTITLE11=Let's make love
TTITLE12=When i said i do
TTITLE13=When you tell me that you love me
TTITLE14=I will always love you
EXTD=
EXTT0=
EXTT1=
EXTT2=
EXTT3=
EXTT4=
EXTT5=
EXTT6=
EXTT7=
EXTT8=
EXTT9=
EXTT10=
EXTT11=
EXTT12=
EXTT13=
EXTT14=
PLAYORDER=
